<mxfile host="app.diagrams.net" modified="2022-04-27T18:39:30.219Z" agent="5.0 (Windows NT 10.0; Win64; x64) AppleWebKit/537.36 (KHTML, like Gecko) Chrome/100.0.4896.127 Safari/537.36" etag="6HJlF-n52_pTSRFoHKVM" version="17.4.6" type="github">
  <diagram id="4EpchtD3IDfHmD8kFyGa" name="Page-1">
    <mxGraphModel dx="2545" dy="943" grid="1" gridSize="10" guides="1" tooltips="1" connect="1" arrows="1" fold="1" page="1" pageScale="1" pageWidth="827" pageHeight="1169" math="0" shadow="0">
      <root>
        <mxCell id="0" />
        <mxCell id="1" parent="0" />
        <mxCell id="VXNFrs5mRAKKbEihXfAM-20" style="edgeStyle=orthogonalEdgeStyle;rounded=0;orthogonalLoop=1;jettySize=auto;html=1;entryX=0;entryY=0.5;entryDx=0;entryDy=0;endArrow=none;endFill=0;startArrow=ERone;startFill=0;exitX=1;exitY=0.25;exitDx=0;exitDy=0;" parent="1" source="VXNFrs5mRAKKbEihXfAM-1" target="VXNFrs5mRAKKbEihXfAM-2" edge="1">
          <mxGeometry relative="1" as="geometry" />
        </mxCell>
        <mxCell id="VXNFrs5mRAKKbEihXfAM-22" style="edgeStyle=orthogonalEdgeStyle;rounded=0;orthogonalLoop=1;jettySize=auto;html=1;entryX=0;entryY=0.5;entryDx=0;entryDy=0;startArrow=ERone;startFill=0;endArrow=none;endFill=0;exitX=1;exitY=0.75;exitDx=0;exitDy=0;" parent="1" source="VXNFrs5mRAKKbEihXfAM-1" target="VXNFrs5mRAKKbEihXfAM-3" edge="1">
          <mxGeometry relative="1" as="geometry" />
        </mxCell>
        <mxCell id="VXNFrs5mRAKKbEihXfAM-24" style="edgeStyle=orthogonalEdgeStyle;rounded=0;orthogonalLoop=1;jettySize=auto;html=1;startArrow=ERone;startFill=0;endArrow=none;endFill=0;" parent="1" source="VXNFrs5mRAKKbEihXfAM-1" target="VXNFrs5mRAKKbEihXfAM-10" edge="1">
          <mxGeometry relative="1" as="geometry" />
        </mxCell>
        <mxCell id="VXNFrs5mRAKKbEihXfAM-1" value="회원" style="whiteSpace=wrap;html=1;aspect=fixed;" parent="1" vertex="1">
          <mxGeometry x="110" y="520" width="80" height="80" as="geometry" />
        </mxCell>
        <mxCell id="VXNFrs5mRAKKbEihXfAM-21" style="edgeStyle=orthogonalEdgeStyle;rounded=0;orthogonalLoop=1;jettySize=auto;html=1;startArrow=none;startFill=0;endArrow=oval;endFill=0;entryX=0;entryY=0.25;entryDx=0;entryDy=0;" parent="1" source="VXNFrs5mRAKKbEihXfAM-2" target="VXNFrs5mRAKKbEihXfAM-6" edge="1">
          <mxGeometry relative="1" as="geometry" />
        </mxCell>
        <mxCell id="VXNFrs5mRAKKbEihXfAM-2" value="생성" style="rhombus;whiteSpace=wrap;html=1;" parent="1" vertex="1">
          <mxGeometry x="260" y="502.5" width="50" height="50" as="geometry" />
        </mxCell>
        <mxCell id="VXNFrs5mRAKKbEihXfAM-23" style="edgeStyle=orthogonalEdgeStyle;rounded=0;orthogonalLoop=1;jettySize=auto;html=1;entryX=0;entryY=0.75;entryDx=0;entryDy=0;startArrow=none;startFill=0;endArrow=ERzeroToMany;endFill=0;" parent="1" source="VXNFrs5mRAKKbEihXfAM-3" target="VXNFrs5mRAKKbEihXfAM-6" edge="1">
          <mxGeometry relative="1" as="geometry" />
        </mxCell>
        <mxCell id="VXNFrs5mRAKKbEihXfAM-3" value="소속" style="rhombus;whiteSpace=wrap;html=1;" parent="1" vertex="1">
          <mxGeometry x="260" y="567.5" width="50" height="50" as="geometry" />
        </mxCell>
        <mxCell id="VXNFrs5mRAKKbEihXfAM-26" style="edgeStyle=orthogonalEdgeStyle;rounded=0;orthogonalLoop=1;jettySize=auto;html=1;entryX=0;entryY=0.5;entryDx=0;entryDy=0;startArrow=ERzeroToMany;startFill=0;endArrow=none;endFill=0;exitX=0.5;exitY=0;exitDx=0;exitDy=0;" parent="1" source="VXNFrs5mRAKKbEihXfAM-4" target="VXNFrs5mRAKKbEihXfAM-11" edge="1">
          <mxGeometry relative="1" as="geometry" />
        </mxCell>
        <mxCell id="VXNFrs5mRAKKbEihXfAM-28" style="edgeStyle=orthogonalEdgeStyle;rounded=0;orthogonalLoop=1;jettySize=auto;html=1;entryX=0;entryY=0.5;entryDx=0;entryDy=0;startArrow=ERone;startFill=0;endArrow=none;endFill=0;" parent="1" source="VXNFrs5mRAKKbEihXfAM-4" target="VXNFrs5mRAKKbEihXfAM-12" edge="1">
          <mxGeometry relative="1" as="geometry" />
        </mxCell>
        <mxCell id="VXNFrs5mRAKKbEihXfAM-106" value="" style="edgeStyle=orthogonalEdgeStyle;rounded=0;orthogonalLoop=1;jettySize=auto;html=1;startArrow=none;startFill=0;endArrow=none;endFill=0;" parent="1" source="VXNFrs5mRAKKbEihXfAM-4" target="VXNFrs5mRAKKbEihXfAM-104" edge="1">
          <mxGeometry relative="1" as="geometry" />
        </mxCell>
        <mxCell id="VXNFrs5mRAKKbEihXfAM-4" value="임시 근무" style="whiteSpace=wrap;html=1;aspect=fixed;" parent="1" vertex="1">
          <mxGeometry x="240" y="760" width="80" height="80" as="geometry" />
        </mxCell>
        <mxCell id="VXNFrs5mRAKKbEihXfAM-43" style="edgeStyle=orthogonalEdgeStyle;rounded=0;orthogonalLoop=1;jettySize=auto;html=1;startArrow=ERzeroToMany;startFill=0;endArrow=none;endFill=0;" parent="1" source="VXNFrs5mRAKKbEihXfAM-5" target="VXNFrs5mRAKKbEihXfAM-18" edge="1">
          <mxGeometry relative="1" as="geometry" />
        </mxCell>
        <mxCell id="VXNFrs5mRAKKbEihXfAM-56" value="" style="edgeStyle=orthogonalEdgeStyle;rounded=0;orthogonalLoop=1;jettySize=auto;html=1;startArrow=none;startFill=0;endArrow=none;endFill=0;entryX=0.5;entryY=1;entryDx=0;entryDy=0;exitX=0.5;exitY=0;exitDx=0;exitDy=0;" parent="1" source="VXNFrs5mRAKKbEihXfAM-5" target="VXNFrs5mRAKKbEihXfAM-57" edge="1">
          <mxGeometry relative="1" as="geometry">
            <mxPoint x="280" y="150" as="targetPoint" />
          </mxGeometry>
        </mxCell>
        <mxCell id="VXNFrs5mRAKKbEihXfAM-5" value="듀티" style="whiteSpace=wrap;html=1;aspect=fixed;" parent="1" vertex="1">
          <mxGeometry x="380" y="240" width="80" height="80" as="geometry" />
        </mxCell>
        <mxCell id="VXNFrs5mRAKKbEihXfAM-27" style="edgeStyle=orthogonalEdgeStyle;rounded=0;orthogonalLoop=1;jettySize=auto;html=1;startArrow=ERone;startFill=0;endArrow=none;endFill=0;exitX=0.25;exitY=1;exitDx=0;exitDy=0;" parent="1" source="VXNFrs5mRAKKbEihXfAM-6" target="VXNFrs5mRAKKbEihXfAM-11" edge="1">
          <mxGeometry relative="1" as="geometry" />
        </mxCell>
        <mxCell id="VXNFrs5mRAKKbEihXfAM-32" style="edgeStyle=orthogonalEdgeStyle;rounded=0;orthogonalLoop=1;jettySize=auto;html=1;entryX=0;entryY=0.5;entryDx=0;entryDy=0;startArrow=ERone;startFill=0;endArrow=none;endFill=0;" parent="1" source="VXNFrs5mRAKKbEihXfAM-6" target="VXNFrs5mRAKKbEihXfAM-14" edge="1">
          <mxGeometry relative="1" as="geometry" />
        </mxCell>
        <mxCell id="VXNFrs5mRAKKbEihXfAM-6" value="그룹" style="whiteSpace=wrap;html=1;aspect=fixed;" parent="1" vertex="1">
          <mxGeometry x="380" y="520" width="80" height="80" as="geometry" />
        </mxCell>
        <mxCell id="VXNFrs5mRAKKbEihXfAM-36" style="edgeStyle=orthogonalEdgeStyle;rounded=0;orthogonalLoop=1;jettySize=auto;html=1;exitX=0.5;exitY=0;exitDx=0;exitDy=0;entryX=1;entryY=0.5;entryDx=0;entryDy=0;startArrow=ERone;startFill=0;endArrow=none;endFill=0;" parent="1" source="VXNFrs5mRAKKbEihXfAM-7" target="VXNFrs5mRAKKbEihXfAM-17" edge="1">
          <mxGeometry relative="1" as="geometry" />
        </mxCell>
        <mxCell id="VXNFrs5mRAKKbEihXfAM-38" style="edgeStyle=orthogonalEdgeStyle;rounded=0;orthogonalLoop=1;jettySize=auto;html=1;entryX=0.5;entryY=0;entryDx=0;entryDy=0;startArrow=ERzeroToMany;startFill=0;endArrow=none;endFill=0;" parent="1" source="VXNFrs5mRAKKbEihXfAM-7" target="VXNFrs5mRAKKbEihXfAM-19" edge="1">
          <mxGeometry relative="1" as="geometry" />
        </mxCell>
        <mxCell id="VXNFrs5mRAKKbEihXfAM-7" value="간호사" style="whiteSpace=wrap;html=1;aspect=fixed;" parent="1" vertex="1">
          <mxGeometry x="600" y="320" width="80" height="80" as="geometry" />
        </mxCell>
        <mxCell id="VXNFrs5mRAKKbEihXfAM-92" value="" style="edgeStyle=orthogonalEdgeStyle;rounded=0;orthogonalLoop=1;jettySize=auto;html=1;startArrow=none;startFill=0;endArrow=none;endFill=0;entryX=0;entryY=0.5;entryDx=0;entryDy=0;" parent="1" source="VXNFrs5mRAKKbEihXfAM-8" target="VXNFrs5mRAKKbEihXfAM-91" edge="1">
          <mxGeometry relative="1" as="geometry" />
        </mxCell>
        <mxCell id="VXNFrs5mRAKKbEihXfAM-8" value="근무조정" style="whiteSpace=wrap;html=1;aspect=fixed;" parent="1" vertex="1">
          <mxGeometry x="600" y="520" width="80" height="80" as="geometry" />
        </mxCell>
        <mxCell id="VXNFrs5mRAKKbEihXfAM-100" value="" style="edgeStyle=orthogonalEdgeStyle;rounded=0;orthogonalLoop=1;jettySize=auto;html=1;startArrow=none;startFill=0;endArrow=none;endFill=0;" parent="1" source="VXNFrs5mRAKKbEihXfAM-9" target="VXNFrs5mRAKKbEihXfAM-99" edge="1">
          <mxGeometry relative="1" as="geometry" />
        </mxCell>
        <mxCell id="VXNFrs5mRAKKbEihXfAM-9" value="근무&amp;nbsp;" style="whiteSpace=wrap;html=1;aspect=fixed;" parent="1" vertex="1">
          <mxGeometry x="490" y="760" width="80" height="80" as="geometry" />
        </mxCell>
        <mxCell id="VXNFrs5mRAKKbEihXfAM-25" style="edgeStyle=orthogonalEdgeStyle;rounded=0;orthogonalLoop=1;jettySize=auto;html=1;entryX=0;entryY=0.5;entryDx=0;entryDy=0;startArrow=none;startFill=0;endArrow=ERzeroToMany;endFill=0;" parent="1" source="VXNFrs5mRAKKbEihXfAM-10" target="VXNFrs5mRAKKbEihXfAM-4" edge="1">
          <mxGeometry relative="1" as="geometry" />
        </mxCell>
        <mxCell id="VXNFrs5mRAKKbEihXfAM-10" value="생성" style="rhombus;whiteSpace=wrap;html=1;" parent="1" vertex="1">
          <mxGeometry x="125" y="775" width="50" height="50" as="geometry" />
        </mxCell>
        <mxCell id="VXNFrs5mRAKKbEihXfAM-11" value="소속" style="rhombus;whiteSpace=wrap;html=1;" parent="1" vertex="1">
          <mxGeometry x="350" y="670" width="50" height="50" as="geometry" />
        </mxCell>
        <mxCell id="VXNFrs5mRAKKbEihXfAM-29" style="edgeStyle=orthogonalEdgeStyle;rounded=0;orthogonalLoop=1;jettySize=auto;html=1;entryX=0;entryY=0.5;entryDx=0;entryDy=0;startArrow=none;startFill=0;endArrow=ERzeroToMany;endFill=0;" parent="1" source="VXNFrs5mRAKKbEihXfAM-12" target="VXNFrs5mRAKKbEihXfAM-9" edge="1">
          <mxGeometry relative="1" as="geometry" />
        </mxCell>
        <mxCell id="VXNFrs5mRAKKbEihXfAM-12" value="등록" style="rhombus;whiteSpace=wrap;html=1;" parent="1" vertex="1">
          <mxGeometry x="380" y="775" width="50" height="50" as="geometry" />
        </mxCell>
        <mxCell id="VXNFrs5mRAKKbEihXfAM-30" style="edgeStyle=orthogonalEdgeStyle;rounded=0;orthogonalLoop=1;jettySize=auto;html=1;entryX=0.75;entryY=1;entryDx=0;entryDy=0;startArrow=none;startFill=0;endArrow=ERone;endFill=0;" parent="1" source="VXNFrs5mRAKKbEihXfAM-13" target="VXNFrs5mRAKKbEihXfAM-6" edge="1">
          <mxGeometry relative="1" as="geometry" />
        </mxCell>
        <mxCell id="VXNFrs5mRAKKbEihXfAM-31" style="edgeStyle=orthogonalEdgeStyle;rounded=0;orthogonalLoop=1;jettySize=auto;html=1;startArrow=none;startFill=0;endArrow=ERzeroToMany;endFill=0;exitX=1;exitY=0.5;exitDx=0;exitDy=0;" parent="1" source="VXNFrs5mRAKKbEihXfAM-13" target="VXNFrs5mRAKKbEihXfAM-9" edge="1">
          <mxGeometry relative="1" as="geometry" />
        </mxCell>
        <mxCell id="VXNFrs5mRAKKbEihXfAM-13" value="소속" style="rhombus;whiteSpace=wrap;html=1;" parent="1" vertex="1">
          <mxGeometry x="440" y="670" width="50" height="50" as="geometry" />
        </mxCell>
        <mxCell id="VXNFrs5mRAKKbEihXfAM-33" style="edgeStyle=orthogonalEdgeStyle;rounded=0;orthogonalLoop=1;jettySize=auto;html=1;entryX=0;entryY=0.5;entryDx=0;entryDy=0;startArrow=none;startFill=0;endArrow=ERzeroToMany;endFill=0;" parent="1" source="VXNFrs5mRAKKbEihXfAM-14" target="VXNFrs5mRAKKbEihXfAM-8" edge="1">
          <mxGeometry relative="1" as="geometry" />
        </mxCell>
        <mxCell id="VXNFrs5mRAKKbEihXfAM-14" value="소속" style="rhombus;whiteSpace=wrap;html=1;" parent="1" vertex="1">
          <mxGeometry x="505" y="535" width="50" height="50" as="geometry" />
        </mxCell>
        <mxCell id="VXNFrs5mRAKKbEihXfAM-34" style="edgeStyle=orthogonalEdgeStyle;rounded=0;orthogonalLoop=1;jettySize=auto;html=1;startArrow=none;startFill=0;endArrow=ERzeroToMany;endFill=0;" parent="1" source="VXNFrs5mRAKKbEihXfAM-16" target="VXNFrs5mRAKKbEihXfAM-8" edge="1">
          <mxGeometry relative="1" as="geometry" />
        </mxCell>
        <mxCell id="VXNFrs5mRAKKbEihXfAM-35" style="edgeStyle=orthogonalEdgeStyle;rounded=0;orthogonalLoop=1;jettySize=auto;html=1;entryX=0.5;entryY=1;entryDx=0;entryDy=0;startArrow=none;startFill=0;endArrow=ERone;endFill=0;" parent="1" source="VXNFrs5mRAKKbEihXfAM-16" target="VXNFrs5mRAKKbEihXfAM-7" edge="1">
          <mxGeometry relative="1" as="geometry" />
        </mxCell>
        <mxCell id="VXNFrs5mRAKKbEihXfAM-16" value="등록" style="rhombus;whiteSpace=wrap;html=1;" parent="1" vertex="1">
          <mxGeometry x="615" y="440" width="50" height="50" as="geometry" />
        </mxCell>
        <mxCell id="VXNFrs5mRAKKbEihXfAM-37" style="edgeStyle=orthogonalEdgeStyle;rounded=0;orthogonalLoop=1;jettySize=auto;html=1;entryX=1;entryY=0.5;entryDx=0;entryDy=0;startArrow=none;startFill=0;endArrow=ERzeroToMany;endFill=0;" parent="1" source="VXNFrs5mRAKKbEihXfAM-17" target="VXNFrs5mRAKKbEihXfAM-5" edge="1">
          <mxGeometry relative="1" as="geometry" />
        </mxCell>
        <mxCell id="VXNFrs5mRAKKbEihXfAM-17" value="정의" style="rhombus;whiteSpace=wrap;html=1;" parent="1" vertex="1">
          <mxGeometry x="550" y="255" width="50" height="50" as="geometry" />
        </mxCell>
        <mxCell id="VXNFrs5mRAKKbEihXfAM-41" style="edgeStyle=orthogonalEdgeStyle;rounded=0;orthogonalLoop=1;jettySize=auto;html=1;startArrow=none;startFill=0;endArrow=ERone;endFill=0;" parent="1" source="VXNFrs5mRAKKbEihXfAM-18" target="VXNFrs5mRAKKbEihXfAM-6" edge="1">
          <mxGeometry relative="1" as="geometry" />
        </mxCell>
        <mxCell id="VXNFrs5mRAKKbEihXfAM-18" value="소속" style="rhombus;whiteSpace=wrap;html=1;" parent="1" vertex="1">
          <mxGeometry x="395" y="400" width="50" height="50" as="geometry" />
        </mxCell>
        <mxCell id="VXNFrs5mRAKKbEihXfAM-39" style="edgeStyle=orthogonalEdgeStyle;rounded=0;orthogonalLoop=1;jettySize=auto;html=1;entryX=0.75;entryY=0;entryDx=0;entryDy=0;startArrow=none;startFill=0;endArrow=ERone;endFill=0;exitX=0.5;exitY=1;exitDx=0;exitDy=0;" parent="1" source="VXNFrs5mRAKKbEihXfAM-19" target="VXNFrs5mRAKKbEihXfAM-6" edge="1">
          <mxGeometry relative="1" as="geometry" />
        </mxCell>
        <mxCell id="VXNFrs5mRAKKbEihXfAM-19" value="등록" style="rhombus;whiteSpace=wrap;html=1;" parent="1" vertex="1">
          <mxGeometry x="500" y="400" width="50" height="50" as="geometry" />
        </mxCell>
        <mxCell id="VXNFrs5mRAKKbEihXfAM-52" style="edgeStyle=orthogonalEdgeStyle;rounded=0;orthogonalLoop=1;jettySize=auto;html=1;entryX=0;entryY=0.5;entryDx=0;entryDy=0;startArrow=none;startFill=0;endArrow=none;endFill=0;" parent="1" source="VXNFrs5mRAKKbEihXfAM-44" target="VXNFrs5mRAKKbEihXfAM-1" edge="1">
          <mxGeometry relative="1" as="geometry" />
        </mxCell>
        <mxCell id="VXNFrs5mRAKKbEihXfAM-44" value="비밀번호" style="ellipse;whiteSpace=wrap;html=1;" parent="1" vertex="1">
          <mxGeometry x="-60" y="540" width="90" height="40" as="geometry" />
        </mxCell>
        <mxCell id="VXNFrs5mRAKKbEihXfAM-53" style="edgeStyle=orthogonalEdgeStyle;rounded=0;orthogonalLoop=1;jettySize=auto;html=1;entryX=0;entryY=0.5;entryDx=0;entryDy=0;startArrow=none;startFill=0;endArrow=none;endFill=0;" parent="1" source="VXNFrs5mRAKKbEihXfAM-46" target="VXNFrs5mRAKKbEihXfAM-1" edge="1">
          <mxGeometry relative="1" as="geometry" />
        </mxCell>
        <mxCell id="VXNFrs5mRAKKbEihXfAM-46" value="전화번호" style="ellipse;whiteSpace=wrap;html=1;" parent="1" vertex="1">
          <mxGeometry x="-60" y="580" width="90" height="40" as="geometry" />
        </mxCell>
        <mxCell id="VXNFrs5mRAKKbEihXfAM-54" style="edgeStyle=orthogonalEdgeStyle;rounded=0;orthogonalLoop=1;jettySize=auto;html=1;entryX=0;entryY=0.5;entryDx=0;entryDy=0;startArrow=none;startFill=0;endArrow=none;endFill=0;" parent="1" source="VXNFrs5mRAKKbEihXfAM-47" target="VXNFrs5mRAKKbEihXfAM-1" edge="1">
          <mxGeometry relative="1" as="geometry" />
        </mxCell>
        <mxCell id="VXNFrs5mRAKKbEihXfAM-47" value="이메일" style="ellipse;whiteSpace=wrap;html=1;" parent="1" vertex="1">
          <mxGeometry x="-60" y="620" width="90" height="40" as="geometry" />
        </mxCell>
        <mxCell id="VXNFrs5mRAKKbEihXfAM-51" style="edgeStyle=orthogonalEdgeStyle;rounded=0;orthogonalLoop=1;jettySize=auto;html=1;startArrow=none;startFill=0;endArrow=none;endFill=0;" parent="1" source="VXNFrs5mRAKKbEihXfAM-48" target="VXNFrs5mRAKKbEihXfAM-1" edge="1">
          <mxGeometry relative="1" as="geometry" />
        </mxCell>
        <mxCell id="VXNFrs5mRAKKbEihXfAM-48" value="이름" style="ellipse;whiteSpace=wrap;html=1;" parent="1" vertex="1">
          <mxGeometry x="-60" y="500" width="90" height="40" as="geometry" />
        </mxCell>
        <mxCell id="VXNFrs5mRAKKbEihXfAM-50" style="edgeStyle=orthogonalEdgeStyle;rounded=0;orthogonalLoop=1;jettySize=auto;html=1;startArrow=none;startFill=0;endArrow=none;endFill=0;entryX=0;entryY=0.5;entryDx=0;entryDy=0;" parent="1" source="VXNFrs5mRAKKbEihXfAM-49" target="VXNFrs5mRAKKbEihXfAM-1" edge="1">
          <mxGeometry relative="1" as="geometry">
            <mxPoint x="80" y="500" as="targetPoint" />
          </mxGeometry>
        </mxCell>
        <mxCell id="VXNFrs5mRAKKbEihXfAM-49" value="&lt;u&gt;회원번호&lt;/u&gt;" style="ellipse;whiteSpace=wrap;html=1;" parent="1" vertex="1">
          <mxGeometry x="-60" y="460" width="90" height="40" as="geometry" />
        </mxCell>
        <mxCell id="VXNFrs5mRAKKbEihXfAM-57" value="&lt;u&gt;듀티코드&lt;/u&gt;" style="ellipse;whiteSpace=wrap;html=1;" parent="1" vertex="1">
          <mxGeometry x="60" y="140" width="90" height="40" as="geometry" />
        </mxCell>
        <mxCell id="VXNFrs5mRAKKbEihXfAM-67" style="edgeStyle=orthogonalEdgeStyle;rounded=0;orthogonalLoop=1;jettySize=auto;html=1;entryX=0.5;entryY=0;entryDx=0;entryDy=0;startArrow=none;startFill=0;endArrow=none;endFill=0;exitX=0.5;exitY=1;exitDx=0;exitDy=0;" parent="1" source="VXNFrs5mRAKKbEihXfAM-58" target="VXNFrs5mRAKKbEihXfAM-5" edge="1">
          <mxGeometry relative="1" as="geometry" />
        </mxCell>
        <mxCell id="VXNFrs5mRAKKbEihXfAM-58" value="사용여부" style="ellipse;whiteSpace=wrap;html=1;" parent="1" vertex="1">
          <mxGeometry x="150" y="140" width="90" height="40" as="geometry" />
        </mxCell>
        <mxCell id="VXNFrs5mRAKKbEihXfAM-68" style="edgeStyle=orthogonalEdgeStyle;rounded=0;orthogonalLoop=1;jettySize=auto;html=1;startArrow=none;startFill=0;endArrow=none;endFill=0;exitX=0.5;exitY=1;exitDx=0;exitDy=0;" parent="1" source="VXNFrs5mRAKKbEihXfAM-59" edge="1">
          <mxGeometry relative="1" as="geometry">
            <mxPoint x="420" y="240" as="targetPoint" />
          </mxGeometry>
        </mxCell>
        <mxCell id="VXNFrs5mRAKKbEihXfAM-59" value="근무시작시간" style="ellipse;whiteSpace=wrap;html=1;" parent="1" vertex="1">
          <mxGeometry x="240" y="140" width="90" height="40" as="geometry" />
        </mxCell>
        <mxCell id="VXNFrs5mRAKKbEihXfAM-70" style="edgeStyle=orthogonalEdgeStyle;rounded=0;orthogonalLoop=1;jettySize=auto;html=1;entryX=0.5;entryY=0;entryDx=0;entryDy=0;startArrow=none;startFill=0;endArrow=none;endFill=0;" parent="1" source="VXNFrs5mRAKKbEihXfAM-60" target="VXNFrs5mRAKKbEihXfAM-5" edge="1">
          <mxGeometry relative="1" as="geometry" />
        </mxCell>
        <mxCell id="VXNFrs5mRAKKbEihXfAM-60" value="코드이름" style="ellipse;whiteSpace=wrap;html=1;" parent="1" vertex="1">
          <mxGeometry x="420" y="140" width="90" height="40" as="geometry" />
        </mxCell>
        <mxCell id="VXNFrs5mRAKKbEihXfAM-71" style="edgeStyle=orthogonalEdgeStyle;rounded=0;orthogonalLoop=1;jettySize=auto;html=1;entryX=0.5;entryY=0;entryDx=0;entryDy=0;startArrow=none;startFill=0;endArrow=none;endFill=0;exitX=0.5;exitY=1;exitDx=0;exitDy=0;" parent="1" source="VXNFrs5mRAKKbEihXfAM-61" target="VXNFrs5mRAKKbEihXfAM-5" edge="1">
          <mxGeometry relative="1" as="geometry" />
        </mxCell>
        <mxCell id="VXNFrs5mRAKKbEihXfAM-61" value="색상" style="ellipse;whiteSpace=wrap;html=1;" parent="1" vertex="1">
          <mxGeometry x="510" y="140" width="90" height="40" as="geometry" />
        </mxCell>
        <mxCell id="VXNFrs5mRAKKbEihXfAM-69" style="edgeStyle=orthogonalEdgeStyle;rounded=0;orthogonalLoop=1;jettySize=auto;html=1;entryX=0.5;entryY=0;entryDx=0;entryDy=0;startArrow=none;startFill=0;endArrow=none;endFill=0;" parent="1" source="VXNFrs5mRAKKbEihXfAM-62" target="VXNFrs5mRAKKbEihXfAM-5" edge="1">
          <mxGeometry relative="1" as="geometry" />
        </mxCell>
        <mxCell id="VXNFrs5mRAKKbEihXfAM-62" value="근무길이" style="ellipse;whiteSpace=wrap;html=1;" parent="1" vertex="1">
          <mxGeometry x="330" y="140" width="90" height="40" as="geometry" />
        </mxCell>
        <mxCell id="VXNFrs5mRAKKbEihXfAM-72" style="edgeStyle=orthogonalEdgeStyle;rounded=0;orthogonalLoop=1;jettySize=auto;html=1;entryX=0.5;entryY=0;entryDx=0;entryDy=0;startArrow=none;startFill=0;endArrow=none;endFill=0;exitX=0.5;exitY=1;exitDx=0;exitDy=0;" parent="1" source="VXNFrs5mRAKKbEihXfAM-64" target="VXNFrs5mRAKKbEihXfAM-5" edge="1">
          <mxGeometry relative="1" as="geometry" />
        </mxCell>
        <mxCell id="VXNFrs5mRAKKbEihXfAM-64" value="근무유형" style="ellipse;whiteSpace=wrap;html=1;" parent="1" vertex="1">
          <mxGeometry x="600" y="140" width="90" height="40" as="geometry" />
        </mxCell>
        <mxCell id="VXNFrs5mRAKKbEihXfAM-73" style="edgeStyle=orthogonalEdgeStyle;rounded=0;orthogonalLoop=1;jettySize=auto;html=1;entryX=0.5;entryY=0;entryDx=0;entryDy=0;startArrow=none;startFill=0;endArrow=none;endFill=0;exitX=0.5;exitY=1;exitDx=0;exitDy=0;" parent="1" source="VXNFrs5mRAKKbEihXfAM-66" target="VXNFrs5mRAKKbEihXfAM-5" edge="1">
          <mxGeometry relative="1" as="geometry" />
        </mxCell>
        <mxCell id="VXNFrs5mRAKKbEihXfAM-66" value="작성자&amp;nbsp;" style="ellipse;whiteSpace=wrap;html=1;" parent="1" vertex="1">
          <mxGeometry x="690" y="140" width="90" height="40" as="geometry" />
        </mxCell>
        <mxCell id="VXNFrs5mRAKKbEihXfAM-82" style="edgeStyle=orthogonalEdgeStyle;rounded=0;orthogonalLoop=1;jettySize=auto;html=1;entryX=1;entryY=0.5;entryDx=0;entryDy=0;startArrow=none;startFill=0;endArrow=none;endFill=0;" parent="1" source="VXNFrs5mRAKKbEihXfAM-74" target="VXNFrs5mRAKKbEihXfAM-7" edge="1">
          <mxGeometry relative="1" as="geometry" />
        </mxCell>
        <mxCell id="VXNFrs5mRAKKbEihXfAM-74" value="&lt;u&gt;간호사번호&lt;/u&gt;" style="ellipse;whiteSpace=wrap;html=1;" parent="1" vertex="1">
          <mxGeometry x="750" y="240" width="90" height="40" as="geometry" />
        </mxCell>
        <mxCell id="VXNFrs5mRAKKbEihXfAM-81" value="" style="edgeStyle=orthogonalEdgeStyle;rounded=0;orthogonalLoop=1;jettySize=auto;html=1;startArrow=none;startFill=0;endArrow=none;endFill=0;" parent="1" source="VXNFrs5mRAKKbEihXfAM-75" target="VXNFrs5mRAKKbEihXfAM-7" edge="1">
          <mxGeometry relative="1" as="geometry" />
        </mxCell>
        <mxCell id="VXNFrs5mRAKKbEihXfAM-75" value="간호사 이름" style="ellipse;whiteSpace=wrap;html=1;" parent="1" vertex="1">
          <mxGeometry x="750" y="321.25" width="90" height="40" as="geometry" />
        </mxCell>
        <mxCell id="VXNFrs5mRAKKbEihXfAM-80" value="" style="edgeStyle=orthogonalEdgeStyle;rounded=0;orthogonalLoop=1;jettySize=auto;html=1;startArrow=none;startFill=0;endArrow=none;endFill=0;" parent="1" source="VXNFrs5mRAKKbEihXfAM-76" target="VXNFrs5mRAKKbEihXfAM-7" edge="1">
          <mxGeometry relative="1" as="geometry" />
        </mxCell>
        <mxCell id="VXNFrs5mRAKKbEihXfAM-76" value="전담" style="ellipse;whiteSpace=wrap;html=1;" parent="1" vertex="1">
          <mxGeometry x="750" y="361.25" width="90" height="40" as="geometry" />
        </mxCell>
        <mxCell id="VXNFrs5mRAKKbEihXfAM-83" value="" style="edgeStyle=orthogonalEdgeStyle;rounded=0;orthogonalLoop=1;jettySize=auto;html=1;startArrow=none;startFill=0;endArrow=none;endFill=0;entryX=1;entryY=0.5;entryDx=0;entryDy=0;" parent="1" source="VXNFrs5mRAKKbEihXfAM-78" target="VXNFrs5mRAKKbEihXfAM-7" edge="1">
          <mxGeometry relative="1" as="geometry" />
        </mxCell>
        <mxCell id="VXNFrs5mRAKKbEihXfAM-78" value="직책" style="ellipse;whiteSpace=wrap;html=1;" parent="1" vertex="1">
          <mxGeometry x="750" y="401.25" width="90" height="38.75" as="geometry" />
        </mxCell>
        <mxCell id="VXNFrs5mRAKKbEihXfAM-84" value="" style="edgeStyle=orthogonalEdgeStyle;rounded=0;orthogonalLoop=1;jettySize=auto;html=1;startArrow=none;startFill=0;endArrow=none;endFill=0;entryX=1;entryY=0.5;entryDx=0;entryDy=0;" parent="1" source="VXNFrs5mRAKKbEihXfAM-79" target="VXNFrs5mRAKKbEihXfAM-7" edge="1">
          <mxGeometry relative="1" as="geometry" />
        </mxCell>
        <mxCell id="VXNFrs5mRAKKbEihXfAM-79" value="연차" style="ellipse;whiteSpace=wrap;html=1;" parent="1" vertex="1">
          <mxGeometry x="750" y="441.25" width="90" height="40" as="geometry" />
        </mxCell>
        <mxCell id="VXNFrs5mRAKKbEihXfAM-93" value="" style="edgeStyle=orthogonalEdgeStyle;rounded=0;orthogonalLoop=1;jettySize=auto;html=1;startArrow=none;startFill=0;endArrow=none;endFill=0;entryX=1;entryY=0.5;entryDx=0;entryDy=0;" parent="1" source="VXNFrs5mRAKKbEihXfAM-87" target="VXNFrs5mRAKKbEihXfAM-8" edge="1">
          <mxGeometry relative="1" as="geometry" />
        </mxCell>
        <mxCell id="VXNFrs5mRAKKbEihXfAM-87" value="근무조정번호" style="ellipse;whiteSpace=wrap;html=1;" parent="1" vertex="1">
          <mxGeometry x="750" y="500" width="90" height="40" as="geometry" />
        </mxCell>
        <mxCell id="VXNFrs5mRAKKbEihXfAM-95" value="" style="edgeStyle=orthogonalEdgeStyle;rounded=0;orthogonalLoop=1;jettySize=auto;html=1;startArrow=none;startFill=0;endArrow=none;endFill=0;" parent="1" source="VXNFrs5mRAKKbEihXfAM-89" target="VXNFrs5mRAKKbEihXfAM-8" edge="1">
          <mxGeometry relative="1" as="geometry" />
        </mxCell>
        <mxCell id="VXNFrs5mRAKKbEihXfAM-89" value="듀티코드" style="ellipse;whiteSpace=wrap;html=1;" parent="1" vertex="1">
          <mxGeometry x="750" y="540" width="90" height="40" as="geometry" />
        </mxCell>
        <mxCell id="VXNFrs5mRAKKbEihXfAM-96" value="" style="edgeStyle=orthogonalEdgeStyle;rounded=0;orthogonalLoop=1;jettySize=auto;html=1;startArrow=none;startFill=0;endArrow=none;endFill=0;" parent="1" source="VXNFrs5mRAKKbEihXfAM-90" target="VXNFrs5mRAKKbEihXfAM-8" edge="1">
          <mxGeometry relative="1" as="geometry" />
        </mxCell>
        <mxCell id="VXNFrs5mRAKKbEihXfAM-90" value="사유" style="ellipse;whiteSpace=wrap;html=1;" parent="1" vertex="1">
          <mxGeometry x="750" y="580" width="90" height="40" as="geometry" />
        </mxCell>
        <mxCell id="VXNFrs5mRAKKbEihXfAM-91" value="날짜" style="ellipse;whiteSpace=wrap;html=1;" parent="1" vertex="1">
          <mxGeometry x="750" y="620" width="90" height="40" as="geometry" />
        </mxCell>
        <mxCell id="VXNFrs5mRAKKbEihXfAM-102" value="" style="edgeStyle=orthogonalEdgeStyle;rounded=0;orthogonalLoop=1;jettySize=auto;html=1;startArrow=none;startFill=0;endArrow=none;endFill=0;" parent="1" source="VXNFrs5mRAKKbEihXfAM-97" target="VXNFrs5mRAKKbEihXfAM-9" edge="1">
          <mxGeometry relative="1" as="geometry" />
        </mxCell>
        <mxCell id="VXNFrs5mRAKKbEihXfAM-97" value="&lt;u&gt;근무 번호&lt;/u&gt;" style="ellipse;whiteSpace=wrap;html=1;" parent="1" vertex="1">
          <mxGeometry x="630" y="740" width="90" height="40" as="geometry" />
        </mxCell>
        <mxCell id="VXNFrs5mRAKKbEihXfAM-101" value="" style="edgeStyle=orthogonalEdgeStyle;rounded=0;orthogonalLoop=1;jettySize=auto;html=1;startArrow=none;startFill=0;endArrow=none;endFill=0;" parent="1" source="VXNFrs5mRAKKbEihXfAM-98" target="VXNFrs5mRAKKbEihXfAM-9" edge="1">
          <mxGeometry relative="1" as="geometry" />
        </mxCell>
        <mxCell id="VXNFrs5mRAKKbEihXfAM-98" value="듀티" style="ellipse;whiteSpace=wrap;html=1;" parent="1" vertex="1">
          <mxGeometry x="630" y="780" width="90" height="40" as="geometry" />
        </mxCell>
        <mxCell id="VXNFrs5mRAKKbEihXfAM-99" value="날짜" style="ellipse;whiteSpace=wrap;html=1;" parent="1" vertex="1">
          <mxGeometry x="630" y="820" width="90" height="40" as="geometry" />
        </mxCell>
        <mxCell id="VXNFrs5mRAKKbEihXfAM-107" value="" style="edgeStyle=orthogonalEdgeStyle;rounded=0;orthogonalLoop=1;jettySize=auto;html=1;startArrow=none;startFill=0;endArrow=none;endFill=0;entryX=0.5;entryY=1;entryDx=0;entryDy=0;" parent="1" source="VXNFrs5mRAKKbEihXfAM-103" target="VXNFrs5mRAKKbEihXfAM-4" edge="1">
          <mxGeometry relative="1" as="geometry" />
        </mxCell>
        <mxCell id="VXNFrs5mRAKKbEihXfAM-109" style="edgeStyle=orthogonalEdgeStyle;rounded=0;orthogonalLoop=1;jettySize=auto;html=1;entryX=0.5;entryY=1;entryDx=0;entryDy=0;startArrow=none;startFill=0;endArrow=none;endFill=0;exitX=0.5;exitY=0;exitDx=0;exitDy=0;" parent="1" source="VXNFrs5mRAKKbEihXfAM-103" target="VXNFrs5mRAKKbEihXfAM-4" edge="1">
          <mxGeometry relative="1" as="geometry" />
        </mxCell>
        <mxCell id="VXNFrs5mRAKKbEihXfAM-103" value="&lt;u&gt;임시근무 번호&lt;/u&gt;" style="ellipse;whiteSpace=wrap;html=1;" parent="1" vertex="1">
          <mxGeometry x="145" y="900" width="90" height="40" as="geometry" />
        </mxCell>
        <mxCell id="VXNFrs5mRAKKbEihXfAM-110" value="" style="edgeStyle=orthogonalEdgeStyle;rounded=0;orthogonalLoop=1;jettySize=auto;html=1;startArrow=none;startFill=0;endArrow=none;endFill=0;" parent="1" source="VXNFrs5mRAKKbEihXfAM-104" target="VXNFrs5mRAKKbEihXfAM-4" edge="1">
          <mxGeometry relative="1" as="geometry" />
        </mxCell>
        <mxCell id="VXNFrs5mRAKKbEihXfAM-104" value="듀티" style="ellipse;whiteSpace=wrap;html=1;" parent="1" vertex="1">
          <mxGeometry x="235" y="900" width="90" height="40" as="geometry" />
        </mxCell>
        <mxCell id="VXNFrs5mRAKKbEihXfAM-108" value="" style="edgeStyle=orthogonalEdgeStyle;rounded=0;orthogonalLoop=1;jettySize=auto;html=1;startArrow=none;startFill=0;endArrow=none;endFill=0;entryX=0.5;entryY=1;entryDx=0;entryDy=0;exitX=0.5;exitY=0;exitDx=0;exitDy=0;" parent="1" source="VXNFrs5mRAKKbEihXfAM-105" target="VXNFrs5mRAKKbEihXfAM-4" edge="1">
          <mxGeometry relative="1" as="geometry" />
        </mxCell>
        <mxCell id="VXNFrs5mRAKKbEihXfAM-105" value="날짜" style="ellipse;whiteSpace=wrap;html=1;" parent="1" vertex="1">
          <mxGeometry x="325" y="900" width="90" height="40" as="geometry" />
        </mxCell>
        <mxCell id="VXNFrs5mRAKKbEihXfAM-112" style="edgeStyle=orthogonalEdgeStyle;rounded=0;orthogonalLoop=1;jettySize=auto;html=1;entryX=1;entryY=0.5;entryDx=0;entryDy=0;startArrow=none;startFill=0;endArrow=none;endFill=0;" parent="1" source="VXNFrs5mRAKKbEihXfAM-111" target="VXNFrs5mRAKKbEihXfAM-7" edge="1">
          <mxGeometry relative="1" as="geometry" />
        </mxCell>
        <mxCell id="VXNFrs5mRAKKbEihXfAM-111" value="프리셉터" style="ellipse;whiteSpace=wrap;html=1;" parent="1" vertex="1">
          <mxGeometry x="750" y="280" width="90" height="40" as="geometry" />
        </mxCell>
      </root>
    </mxGraphModel>
  </diagram>
</mxfile>
